HIERARCHY
ROOT Root
{
  OFFSET 0.0 0.0 0.0
  CHANNELS 6 Xposition Yposition Zposition Zrotation Yrotation Xrotation
  JOINT Hips
  {
    OFFSET 0.0 100.0 0.0
    CHANNELS 6 Xposition Yposition Zposition Zrotation Yrotation Xrotation
    JOINT Spine1
    {
      OFFSET 5.003913 -0.037094 -0.013727
      CHANNELS 3 Zrotation Yrotation Xrotation
      JOINT Spine2
      {
        OFFSET 7.125363 -1e-06 0.0
        CHANNELS 3 Zrotation Yrotation Xrotation
        JOINT Chest
        {
          OFFSET 7.594027 1e-06 0.0
          CHANNELS 3 Zrotation Yrotation Xrotation
          JOINT Neck1
          {
            OFFSET 26.313086 -0.460272 -0.181672
            CHANNELS 3 Zrotation Yrotation Xrotation
            JOINT Neck2
            {
              OFFSET 8.045911 0.0 0.0
              CHANNELS 3 Zrotation Yrotation Xrotation
              JOINT Head
              {
                OFFSET 6.432774 0.0 0.0
                CHANNELS 3 Zrotation Yrotation Xrotation
                JOINT HeadEnd
                {
                  OFFSET 16.169773 0.06451 0.00362
                  CHANNELS 3 Zrotation Yrotation Xrotation
                }
                JOINT Jaw
                {
                  OFFSET 0.108741 3.12938 0.002639
                  CHANNELS 3 Zrotation Yrotation Xrotation
                }
                JOINT LeftEye
                {
                  OFFSET 4.45173 8.166359 3.206392
                  CHANNELS 3 Zrotation Yrotation Xrotation
                }
                JOINT RightEye
                {
                  OFFSET 4.436895 8.135758 -3.222429
                  CHANNELS 3 Zrotation Yrotation Xrotation
                }
              }
            }
          }
          JOINT LeftShoulder
          {
            OFFSET 23.218927 5.195579 1.621656
            CHANNELS 3 Zrotation Yrotation Xrotation
            JOINT LeftArm
            {
              OFFSET 15.902118 2e-06 -2e-06
              CHANNELS 3 Zrotation Yrotation Xrotation
              JOINT LeftForeArm
              {
                OFFSET 28.739307 0.0 -1e-06
                CHANNELS 3 Zrotation Yrotation Xrotation
                JOINT LeftHand
                {
                  OFFSET 27.093981 -4e-06 0.0
                  CHANNELS 3 Zrotation Yrotation Xrotation
                  JOINT LeftHandThumb1
                  {
                    OFFSET 2.276781 3.380274 0.83384
                    CHANNELS 3 Zrotation Yrotation Xrotation
                    JOINT LeftHandThumb2
                    {
                      OFFSET 4.705309 -1e-06 -1e-06
                      CHANNELS 3 Zrotation Yrotation Xrotation
                      JOINT LeftHandThumb3
                      {
                        OFFSET 2.798515 0.0 3e-06
                        CHANNELS 3 Zrotation Yrotation Xrotation
                        JOINT LeftHandThumbEnd
                        {
                          OFFSET 3.180793 4e-06 -4e-06
                          CHANNELS 3 Zrotation Yrotation Xrotation
                        }
                      }
                    }
                  }
                  JOINT LeftHandIndex1
                  {
                    OFFSET 3.247786 2.352677 0.137192
                    CHANNELS 3 Zrotation Yrotation Xrotation
                    JOINT LeftHandIndex2
                    {
                      OFFSET 6.367095 1e-06 0.0
                      CHANNELS 3 Zrotation Yrotation Xrotation
                      JOINT LeftHandIndex3
                      {
                        OFFSET 3.662364 0.0 0.0
                        CHANNELS 3 Zrotation Yrotation Xrotation
                        JOINT LeftHandIndex4
                        {
                          OFFSET 2.329242 4e-06 -4e-06
                          CHANNELS 3 Zrotation Yrotation Xrotation
                          JOINT LeftHandIndexEnd
                          {
                            OFFSET 2.767823 1e-06 0.0
                            CHANNELS 3 Zrotation Yrotation Xrotation
                          }
                        }
                      }
                    }
                  }
                  JOINT LeftHandMiddle1
                  {
                    OFFSET 3.163612 0.945023 -0.406112
                    CHANNELS 3 Zrotation Yrotation Xrotation
                    JOINT LeftHandMiddle2
                    {
                      OFFSET 6.276789 3e-06 0.0
                      CHANNELS 3 Zrotation Yrotation Xrotation
                      JOINT LeftHandMiddle3
                      {
                        OFFSET 4.35652 -1e-06 4e-06
                        CHANNELS 3 Zrotation Yrotation Xrotation
                        JOINT LeftHandMiddle4
                        {
                          OFFSET 2.996877 0.0 8e-06
                          CHANNELS 3 Zrotation Yrotation Xrotation
                          JOINT LeftHandMiddleEnd
                          {
                            OFFSET 2.323256 3e-06 -4e-06
                            CHANNELS 3 Zrotation Yrotation Xrotation
                          }
                        }
                      }
                    }
                  }
                  JOINT LeftHandRing1
                  {
                    OFFSET 2.882606 -0.309162 0.107445
                    CHANNELS 3 Zrotation Yrotation Xrotation
                    JOINT LeftHandRing2
                    {
                      OFFSET 6.033198 0.0 4e-06
                      CHANNELS 3 Zrotation Yrotation Xrotation
                      JOINT LeftHandRing3
                      {
                        OFFSET 4.350578 3e-06 0.0
                        CHANNELS 3 Zrotation Yrotation Xrotation
                        JOINT LeftHandRing4
                        {
                          OFFSET 2.651321 2e-06 -7e-06
                          CHANNELS 3 Zrotation Yrotation Xrotation
                          JOINT LeftHandRingEnd
                          {
                            OFFSET 1.937663 1e-06 -4e-06
                            CHANNELS 3 Zrotation Yrotation Xrotation
                          }
                        }
                      }
                    }
                  }
                  JOINT LeftHandPinky1
                  {
                    OFFSET 2.865315 -1.525436 0.575687
                    CHANNELS 3 Zrotation Yrotation Xrotation
                    JOINT LeftHandPinky2
                    {
                      OFFSET 5.54936 1e-06 -8e-06
                      CHANNELS 3 Zrotation Yrotation Xrotation
                      JOINT LeftHandPinky3
                      {
                        OFFSET 3.070974 0.0 -4e-06
                        CHANNELS 3 Zrotation Yrotation Xrotation
                        JOINT LeftHandPinky4
                        {
                          OFFSET 1.549672 1e-06 0.0
                          CHANNELS 3 Zrotation Yrotation Xrotation
                          JOINT LeftHandPinkyEnd
                          {
                            OFFSET 1.952123 0.0 0.0
                            CHANNELS 3 Zrotation Yrotation Xrotation
                          }
                        }
                      }
                    }
                  }
                }
              }
            }
          }
          JOINT RightShoulder
          {
            OFFSET 23.161716 5.296122 -1.380114
            CHANNELS 3 Zrotation Yrotation Xrotation
            JOINT RightArm
            {
              OFFSET -16.027195 -2e-06 1.1e-05
              CHANNELS 3 Zrotation Yrotation Xrotation
              JOINT RightForeArm
              {
                OFFSET -28.736639 4e-06 2e-06
                CHANNELS 3 Zrotation Yrotation Xrotation
                JOINT RightHand
                {
                  OFFSET -27.133619 6e-06 0.0
                  CHANNELS 3 Zrotation Yrotation Xrotation
                  JOINT RightHandThumb1
                  {
                    OFFSET -2.274328 -3.351035 -0.83067
                    CHANNELS 3 Zrotation Yrotation Xrotation
                    JOINT RightHandThumb2
                    {
                      OFFSET -4.703594 -3e-06 2e-06
                      CHANNELS 3 Zrotation Yrotation Xrotation
                      JOINT RightHandThumb3
                      {
                        OFFSET -2.794935 -4e-06 -3e-06
                        CHANNELS 3 Zrotation Yrotation Xrotation
                        JOINT RightHandThumbEnd
                        {
                          OFFSET -3.183852 4e-06 1e-06
                          CHANNELS 3 Zrotation Yrotation Xrotation
                        }
                      }
                    }
                  }
                  JOINT RightHandIndex1
                  {
                    OFFSET -3.253496 -2.33755 -0.127667
                    CHANNELS 3 Zrotation Yrotation Xrotation
                    JOINT RightHandIndex2
                    {
                      OFFSET -6.344434 0.0 0.0
                      CHANNELS 3 Zrotation Yrotation Xrotation
                      JOINT RightHandIndex3
                      {
                        OFFSET -3.654871 0.0 -8e-06
                        CHANNELS 3 Zrotation Yrotation Xrotation
                        JOINT RightHandIndex4
                        {
                          OFFSET -2.327586 -1e-06 0.0
                          CHANNELS 3 Zrotation Yrotation Xrotation
                          JOINT RightHandIndexEnd
                          {
                            OFFSET -2.770001 3e-06 8e-06
                            CHANNELS 3 Zrotation Yrotation Xrotation
                          }
                        }
                      }
                    }
                  }
                  JOINT RightHandMiddle1
                  {
                    OFFSET -3.168223 -0.944764 0.411762
                    CHANNELS 3 Zrotation Yrotation Xrotation
                    JOINT RightHandMiddle2
                    {
                      OFFSET -6.266691 -1e-06 -4e-06
                      CHANNELS 3 Zrotation Yrotation Xrotation
                      JOINT RightHandMiddle3
                      {
                        OFFSET -4.348901 0.0 0.0
                        CHANNELS 3 Zrotation Yrotation Xrotation
                        JOINT RightHandMiddle4
                        {
                          OFFSET -3.00024 2e-06 -4e-06
                          CHANNELS 3 Zrotation Yrotation Xrotation
                          JOINT RightHandMiddleEnd
                          {
                            OFFSET -2.321477 -4e-06 -4e-06
                            CHANNELS 3 Zrotation Yrotation Xrotation
                          }
                        }
                      }
                    }
                  }
                  JOINT RightHandRing1
                  {
                    OFFSET -2.885654 0.293261 -0.119232
                    CHANNELS 3 Zrotation Yrotation Xrotation
                    JOINT RightHandRing2
                    {
                      OFFSET -6.032835 -1e-06 -4e-06
                      CHANNELS 3 Zrotation Yrotation Xrotation
                      JOINT RightHandRing3
                      {
                        OFFSET -4.33881 0.0 -4e-06
                        CHANNELS 3 Zrotation Yrotation Xrotation
                        JOINT RightHandRing4
                        {
                          OFFSET -2.654903 -4e-06 -4e-06
                          CHANNELS 3 Zrotation Yrotation Xrotation
                          JOINT RightHandRingEnd
                          {
                            OFFSET -1.935122 0.0 4e-06
                            CHANNELS 3 Zrotation Yrotation Xrotation
                          }
                        }
                      }
                    }
                  }
                  JOINT RightHandPinky1
                  {
                    OFFSET -2.866241 1.503904 -0.60527
                    CHANNELS 3 Zrotation Yrotation Xrotation
                    JOINT RightHandPinky2
                    {
                      OFFSET -5.553177 -2e-06 0.0
                      CHANNELS 3 Zrotation Yrotation Xrotation
                      JOINT RightHandPinky3
                      {
                        OFFSET -3.062664 -1e-06 -4e-06
                        CHANNELS 3 Zrotation Yrotation Xrotation
                        JOINT RightHandPinky4
                        {
                          OFFSET -1.546529 2e-06 4e-06
                          CHANNELS 3 Zrotation Yrotation Xrotation
                          JOINT RightHandPinkyEnd
                          {
                            OFFSET -1.952341 0.0 -4e-06
                            CHANNELS 3 Zrotation Yrotation Xrotation
                          }
                        }
                      }
                    }
                  }
                }
              }
            }
          }
        }
      }
    }
    JOINT LeftLeg
    {
      OFFSET -8.443107 2.567604 10.043214
      CHANNELS 3 Zrotation Yrotation Xrotation
      JOINT LeftShin
      {
        OFFSET 43.229198 1e-06 -1e-06
        CHANNELS 3 Zrotation Yrotation Xrotation
        JOINT LeftFoot
        {
          OFFSET 42.298611 1e-06 1e-06
          CHANNELS 3 Zrotation Yrotation Xrotation
          JOINT LeftToeBase
          {
            OFFSET 14.165858 1e-06 0.0
            CHANNELS 3 Zrotation Yrotation Xrotation
            JOINT LeftToeEnd
            {
              OFFSET 6.7141 -0.234461 0.0
              CHANNELS 3 Zrotation Yrotation Xrotation
            }
          }
        }
      }
    }
    JOINT RightLeg
    {
      OFFSET -8.303923 2.592729 -10.047278
      CHANNELS 3 Zrotation Yrotation Xrotation
      JOINT RightShin
      {
        OFFSET -43.369682 0.0 1e-06
        CHANNELS 3 Zrotation Yrotation Xrotation
        JOINT RightFoot
        {
          OFFSET -42.260784 4e-06 2e-06
          CHANNELS 3 Zrotation Yrotation Xrotation
          JOINT RightToeBase
          {
            OFFSET -14.222245 -2e-06 -1e-06
            CHANNELS 3 Zrotation Yrotation Xrotation
            JOINT RightToeEnd
            {
              OFFSET -6.660062 0.232574 -2e-06
              CHANNELS 3 Zrotation Yrotation Xrotation
            }
          }
        }
      }
    }
  }
}
MOTION
Frames: 5
Frame Time: 0.03333333333333333
0.0 0.0 0.0 0.0 -0.0 0.0 1.016521 93.998787 5.203094 95.613747 -0.585299 89.901848 17.048836 1.635256 -0.894368 -3.735521 -0.305744 -0.730557 37.259319 2.690714 -3.502633 34.60564 -12.897113 0.668504 -2.042704 -0.666846 -1.506366 -12.4732 -7.852159 0.240789 6e-06 1e-06 -0.0 -0.165607 0.067122 -0.020337 -0.174039 0.255293 -0.027442 -0.191919 -0.126368 -0.009257 7.654684 -77.771118 5.89255 54.270466 -53.739914 -52.53249 106.055176 -0.797705 0.562225 14.962645 33.021358 59.226238 17.636631 -26.322733 52.411201 -19.46666 -14.3956 29.410395 -1e-06 -8.774823 -2e-06 17.595778 -19.00371 5.395916 -0.609776 -1.795654 -3.889327 -4.80709 -11.046811 -2.93785 3e-06 -20.976019 -1e-06 -5.019971 -25.033554 -4.031881 6e-06 -1e-06 0.0 -10.634535 -5.68697 -3.565587 10.573272 -17.922947 -3.1139 2e-06 -13.821208 0.0 -0.501778 -31.181505 -4.027016 -12.524865 -59.542866 8.072556 -13.982715 -7.150198 -2.875042 13.772729 -8.401491 -3.218241 0.347732 -34.211544 0.771655 -0.96303 -17.73337 2.621019 1e-06 -0.0 -0.0 -17.346416 -20.095217 -4.201782 21.757559 -1.638374 3.866428 1e-06 -6.338825 1e-06 -1.697591 -22.591743 -6.194006 1e-06 -5e-06 -3e-06 -151.046249 -79.318977 -13.875554 64.994507 -35.073242 -64.991638 108.8862 -0.813399 0.786183 11.802701 21.759647 67.578308 22.182112 -20.375895 49.933315 -16.701811 -16.743526 28.476528 -4e-06 -12.690598 -0.0 15.496634 -17.477011 2.374282 -0.105919 -1.513855 -4.275879 -5.039039 -5.61287 -2.953556 5e-06 -11.02052 -3e-06 -6.111294 -15.895328 -3.84047 0.0 -1e-06 -0.0 -10.283367 -5.680286 -4.341838 11.028292 -11.302403 -2.372632 -1.384267 -14.238578 -6.320121 -0.625436 -26.924191 -3.827598 -4.706555 -48.862865 -4.053584 -13.70852 -7.363473 -3.72094 18.141146 -14.052738 -3.242674 7e-06 -18.787266 -3e-06 -0.42971 -8.456043 2.555503 0.0 0.0 0.0 -15.92353 -20.094479 -5.473584 30.419205 -7.190826 1.735926 3e-06 -8.162922 -0.0 -1.861901 -22.861465 -6.167937 -0.0 -3e-06 -1e-06 159.239517 -3.950193 -0.056293 39.173603 -0.130407 0.214668 -88.567673 5.408021 -11.382898 -6.207045 1.586428 2.093986 -0.999998 0.0 0.0 -23.55592 -12.83875 9.366283 45.855957 -0.622303 1.035038 -94.748512 11.339705 -7.084127 -6.190205 0.760611 1.696074 -1.000002 -0.0 -0.0 
0.0 0.0 0.0 0.0 -0.0 0.0 1.525509 94.601692 5.57263 95.657951 -1.149224 89.441925 17.083643 1.637448 -0.950895 -3.869709 -0.183094 -0.628632 36.958183 2.680169 -3.197258 35.050159 -13.059778 0.58431 -2.049901 -0.598563 -1.239008 -11.855216 -7.832144 0.069079 6e-06 -1e-06 0.0 -0.180423 0.023983 -0.00342 -0.171496 0.202385 0.010124 -0.187866 -0.157154 -0.015306 5.69948 -77.742203 7.615109 54.258335 -54.387119 -51.961105 105.350853 -0.809966 0.275416 15.708858 32.655354 58.911606 17.636633 -26.322737 52.411201 -19.46666 -14.395602 29.410389 -1e-06 -8.774822 -2e-06 17.499203 -18.830427 5.330363 -0.609776 -1.795654 -3.889329 -4.80709 -11.046811 -2.937851 4e-06 -20.976019 1e-06 -5.019971 -25.033556 -4.03188 6e-06 -2e-06 -0.0 -10.634535 -5.686971 -3.565588 10.573276 -17.922951 -3.1139 3e-06 -13.821212 1e-06 -0.501778 -31.181505 -4.027014 -12.303947 -59.560673 7.96587 -13.982716 -7.150198 -2.875041 13.772731 -8.401492 -3.218242 0.347733 -34.211552 0.771657 -0.96303 -17.733372 2.621021 1e-06 1e-06 -0.0 -17.346422 -20.095217 -4.201782 21.757566 -1.638375 3.86643 1e-06 -6.338825 1e-06 -1.69759 -22.591751 -6.194007 -1e-06 -5e-06 -2e-06 -150.173065 -79.677032 -14.680783 65.084808 -36.533031 -64.485367 110.0541 -0.827258 0.801007 11.77538 21.451872 67.697525 22.182123 -20.3759 49.933331 -16.701818 -16.74353 28.476538 -4e-06 -12.690605 0.0 15.945855 -17.304258 2.121968 -0.105919 -1.513854 -4.275882 -5.039042 -5.612873 -2.953557 4e-06 -11.020526 -1e-06 -6.111298 -15.895334 -3.840473 0.0 0.0 -0.0 -10.283373 -5.680288 -4.341839 11.028296 -11.302409 -2.372632 -1.384269 -14.238585 -6.320124 -0.625439 -26.924198 -3.827601 -4.617254 -49.145359 -3.946374 -13.708527 -7.363476 -3.720939 18.141153 -14.052742 -3.242676 7e-06 -18.787273 -3e-06 -0.429712 -8.456046 2.555504 -0.0 1e-06 0.0 -15.923541 -20.09449 -5.473585 30.419218 -7.190828 1.735927 1e-06 -8.162927 -2e-06 -1.861903 -22.861473 -6.16794 1e-06 -1e-06 -1e-06 159.975464 -3.399186 0.152293 37.154007 -0.112474 0.219083 -87.822624 4.505728 -11.143622 -6.341556 1.585773 2.090249 -0.999999 0.0 -0.0 -23.005053 -13.438384 8.950315 43.560623 -0.604295 1.027539 -93.744263 12.050274 -7.251754 -6.285865 0.719368 1.704356 -1.000002 0.0 0.0 
0.0 0.0 0.0 0.0 -0.0 0.0 1.90811 94.909805 5.719942 95.638901 -1.51899 88.90155 17.15106 1.57221 -0.902824 -3.913153 -0.102756 -0.618147 36.780666 2.713982 -2.851123 35.291851 -13.313825 0.552307 -2.065231 -0.563256 -1.074319 -11.405071 -7.960163 0.01227 6e-06 -2e-06 0.0 -0.170865 0.025185 0.001231 -0.184993 0.203465 0.018499 -0.210935 -0.153699 -0.01812 4.648516 -77.64444 8.600753 53.878872 -54.987518 -51.472256 104.875946 -0.803142 0.192135 15.999931 32.482548 58.184681 17.63662 -26.322727 52.411205 -19.466658 -14.395596 29.410393 -2e-06 -8.774819 -1e-06 17.467823 -18.771128 5.253023 -0.609776 -1.795654 -3.889327 -4.807087 -11.046809 -2.937852 4e-06 -20.976015 -2e-06 -5.019968 -25.033554 -4.031882 6e-06 -2e-06 -0.0 -10.634531 -5.68697 -3.565588 10.573271 -17.922947 -3.113902 3e-06 -13.821205 -1e-06 -0.501775 -31.181498 -4.027018 -12.203641 -59.600422 7.909622 -13.982712 -7.150198 -2.875042 13.772727 -8.40149 -3.218242 0.347735 -34.211544 0.771652 -0.963027 -17.733366 2.621018 -0.0 -1e-06 -0.0 -17.346413 -20.095215 -4.201784 21.757555 -1.638373 3.866427 1e-06 -6.338823 1e-06 -1.697588 -22.591738 -6.194006 -0.0 -5e-06 -2e-06 -148.954483 -79.79483 -15.786193 64.649109 -37.377369 -63.922367 110.814796 -0.801768 0.767567 12.424971 21.61636 68.094986 22.182119 -20.375902 49.933338 -16.701818 -16.743536 28.476545 -3e-06 -12.690606 0.0 16.231409 -17.263432 2.02229 -0.10592 -1.513857 -4.275885 -5.039042 -5.612873 -2.953557 4e-06 -11.020527 -2e-06 -6.1113 -15.895336 -3.840474 -0.0 -1e-06 -1e-06 -10.283374 -5.68029 -4.341839 11.028299 -11.302408 -2.372634 -1.38427 -14.238585 -6.320123 -0.625438 -26.924198 -3.827601 -4.588004 -49.291676 -3.946848 -13.708529 -7.363479 -3.72094 18.141155 -14.052741 -3.242675 6e-06 -18.787273 -3e-06 -0.429712 -8.456046 2.555504 0.0 0.0 0.0 -15.923541 -20.094492 -5.473588 30.419224 -7.190827 1.735927 2e-06 -8.162927 -2e-06 -1.861903 -22.861479 -6.167943 -0.0 -3e-06 -0.0 160.242401 -3.12423 0.219173 36.199562 -0.099452 0.214256 -87.496552 3.920742 -11.005764 -6.363901 1.597111 2.106897 -0.999999 0.0 -0.0 -22.91925 -13.820309 8.609287 42.254223 -0.572461 1.010782 -93.145348 12.86299 -7.534069 -6.288769 0.678794 1.700844 -1.000002 -0.0 -0.0 
0.0 0.0 0.0 0.0 -0.0 0.0 2.175198 94.987312 5.801749 95.565521 -1.706085 88.371719 17.224459 1.503349 -0.827904 -3.922668 -0.070767 -0.588913 36.690506 2.754426 -2.595964 35.45409 -13.544905 0.525928 -2.071545 -0.522425 -0.976467 -11.209213 -8.114532 0.084797 5e-06 -1e-06 0.0 -0.160496 0.033763 0.000614 -0.217822 0.22103 0.009238 -0.257204 -0.153016 -0.012298 3.987115 -77.504799 9.26713 53.206196 -55.496449 -50.936649 104.472878 -0.871412 0.095816 16.272055 32.472412 57.66412 17.636621 -26.322725 52.411194 -19.466658 -14.395598 29.410389 -1e-06 -8.774821 -1e-06 17.398251 -18.75107 5.243312 -0.609776 -1.795653 -3.889327 -4.807088 -11.046809 -2.937851 4e-06 -20.976015 -1e-06 -5.019969 -25.033552 -4.03188 6e-06 -3e-06 -0.0 -10.634533 -5.68697 -3.565586 10.573272 -17.922947 -3.1139 3e-06 -13.821209 0.0 -0.501776 -31.181498 -4.027016 -12.094276 -59.634907 7.840599 -13.982712 -7.150198 -2.875041 13.772729 -8.401491 -3.218242 0.347734 -34.211544 0.771654 -0.963029 -17.73337 2.621019 0.0 -1e-06 0.0 -17.346416 -20.095217 -4.201782 21.757557 -1.638373 3.866427 1e-06 -6.338823 1e-06 -1.69759 -22.591743 -6.194006 -0.0 -6e-06 -2e-06 -148.456604 -79.823708 -16.249449 64.06366 -37.869991 -63.237103 111.158096 -0.782306 0.731475 13.378215 22.081318 68.64138 22.18211 -20.375889 49.933311 -16.701809 -16.743528 28.476526 -3e-06 -12.6906 2e-06 16.277269 -17.314297 2.070853 -0.105919 -1.513855 -4.275882 -5.039041 -5.612872 -2.953556 4e-06 -11.02052 -1e-06 -6.111297 -15.89533 -3.840469 -0.0 -1e-06 -0.0 -10.283369 -5.680289 -4.341837 11.028293 -11.302404 -2.372634 -1.384269 -14.23858 -6.320123 -0.625437 -26.924187 -3.827604 -4.557385 -49.388527 -3.959118 -13.708524 -7.363474 -3.72094 18.141146 -14.052738 -3.242676 6e-06 -18.787266 -2e-06 -0.429712 -8.456044 2.555504 -0.0 1e-06 0.0 -15.923532 -20.094482 -5.473585 30.41921 -7.190824 1.735925 2e-06 -8.162922 -2e-06 -1.861901 -22.861467 -6.167942 -1e-06 -2e-06 -1e-06 160.215561 -3.096612 0.086049 36.139088 -0.083958 0.201175 -87.589409 3.658002 -11.029947 -6.283761 1.618511 2.125857 -0.999999 -0.0 -0.0 -23.072786 -13.960661 8.451903 41.788399 -0.566768 1.005593 -92.779259 13.497337 -7.767175 -6.280328 0.644732 1.692576 -1.000003 0.0 -0.0 
0.0 0.0 0.0 0.0 -0.0 0.0 2.383286 94.968674 5.878441 95.472008 -1.775985 87.875793 17.30868 1.428441 -0.7644 -3.905468 -0.072124 -0.520938 36.681545 2.806237 -2.442931 35.507469 -13.75187 0.507914 -2.065356 -0.469407 -0.868207 -11.044472 -8.221401 0.235275 6e-06 0.0 0.0 -0.157319 0.027321 0.002429 -0.269156 0.229089 -0.004842 -0.313529 -0.174195 0.004889 3.198359 -77.3619 10.090863 52.554684 -55.839367 -50.486328 104.094879 -0.919057 0.039586 16.370098 32.550392 57.05106 17.636627 -26.322733 52.411201 -19.466665 -14.395602 29.410395 -1e-06 -8.774822 -2e-06 17.310596 -18.730021 5.26156 -0.609776 -1.795654 -3.889328 -4.80709 -11.046813 -2.937851 4e-06 -20.976021 -1e-06 -5.019972 -25.033562 -4.031882 6e-06 -1e-06 0.0 -10.634537 -5.686972 -3.565587 10.573277 -17.922955 -3.113902 3e-06 -13.821213 -1e-06 -0.501777 -31.181511 -4.027019 -11.979962 -59.63501 7.75514 -13.982717 -7.150199 -2.875042 13.772732 -8.401494 -3.218243 0.347735 -34.211559 0.771652 -0.963028 -17.733372 2.621019 1e-06 -1e-06 -0.0 -17.346424 -20.095222 -4.20178 21.757565 -1.638374 3.866428 1e-06 -6.338826 0.0 -1.697589 -22.591751 -6.194009 0.0 -3e-06 -2e-06 -148.417206 -79.825409 -16.324648 63.499081 -38.102856 -62.396866 111.223907 -0.710077 0.702346 14.325125 22.682291 69.131256 22.182117 -20.375898 49.933331 -16.701817 -16.74353 28.476536 -3e-06 -12.690603 1e-06 16.270853 -17.407448 2.16029 -0.105919 -1.513856 -4.275881 -5.039042 -5.612873 -2.953557 4e-06 -11.020526 -1e-06 -6.111298 -15.895338 -3.840472 -1e-06 -1e-06 0.0 -10.283371 -5.680288 -4.341841 11.028296 -11.302409 -2.372632 -1.384269 -14.238585 -6.320123 -0.625438 -26.924194 -3.827603 -4.505012 -49.496807 -3.961336 -13.708526 -7.363478 -3.72094 18.141153 -14.052742 -3.242676 6e-06 -18.787271 -2e-06 -0.429711 -8.456046 2.555504 -1e-06 0.0 -0.0 -15.923536 -20.094486 -5.473587 30.419218 -7.190826 1.735926 2e-06 -8.162929 -2e-06 -1.861903 -22.861471 -6.167942 0.0 -4e-06 -1e-06 160.130051 -3.181193 -0.162795 36.438999 -0.069064 0.176641 -87.859978 3.545531 -11.078794 -6.138679 1.63322 2.139666 -0.999998 0.0 -0.0 -23.252224 -13.968429 8.467242 41.685085 -0.565614 1.006439 -92.697403 13.93539 -7.991392 -6.24543 0.61831 1.685055 -1.000001 -0.0 -0.0 
